<?xml version="1.0" encoding="UTF-8"?>
<svg xmlns="http://www.w3.org/2000/svg" width="480" height="270" viewBox="0 0 480 270">
  <defs>
    <filter id="paper">
      <feTurbulence type="fractalNoise" baseFrequency="0.9" numOctaves="2" stitchTiles="stitch"/>
      <feColorMatrix type="saturate" values="0"/>
      <feComponentTransfer><feFuncA type="table" tableValues="0 0.08"/></feComponentTransfer>
    </filter>
    <pattern id="dotgrid" width="18" height="18" patternUnits="userSpaceOnUse">
      <circle cx="2" cy="2" r="1.2" fill="#111116" opacity="0.16"/>
    </pattern>
  </defs>
  <rect x="0" y="0" width="480" height="270" rx="0" fill="#EEE6D4" stroke="none" stroke-width="0"/>
  <rect x="0" y="0" width="480" height="270" rx="0" fill="white" stroke="none" stroke-width="0"/>
  <rect width="480" height="270" fill="#EEE6D4"/>
  <rect width="480" height="270" filter="url(#paper)" opacity="0.55"/>
  <rect x="174" y="188" width="136" height="30" rx="0" fill="#6E7179" stroke="#111116" stroke-width="4"/><rect x="190" y="155" width="104" height="34" rx="0" fill="#F2C85A" stroke="#111116" stroke-width="4"/><rect x="168" y="121" width="148" height="34" rx="0" fill="#75A7D8" stroke="#111116" stroke-width="4"/><rect x="198" y="88" width="88" height="34" rx="0" fill="#F39A7B" stroke="#111116" stroke-width="4"/><rect x="218" y="54" width="48" height="34" rx="0" fill="#17213B" stroke="#111116" stroke-width="4"/><circle cx="242" cy="33" r="18" fill="#F8F1E3" stroke="#111116" stroke-width="4"/><line x1="185" y1="122" x2="207" y2="155" stroke="#111116" stroke-width="3" stroke-linecap="round"/><line x1="220" y1="122" x2="242" y2="155" stroke="#111116" stroke-width="3" stroke-linecap="round"/><line x1="255" y1="122" x2="277" y2="155" stroke="#111116" stroke-width="3" stroke-linecap="round"/><line x1="290" y1="122" x2="312" y2="155" stroke="#111116" stroke-width="3" stroke-linecap="round"/><circle cx="204" cy="172" r="10" fill="#F8F1E3" stroke="#111116" stroke-width="3"/><circle cx="235" cy="172" r="10" fill="#F8F1E3" stroke="#111116" stroke-width="3"/><circle cx="266" cy="172" r="10" fill="#F8F1E3" stroke="#111116" stroke-width="3"/><path d="M238 54 L229 104 L251 137 L238 181 L263 218" fill="none" stroke="#E23B4A" stroke-width="8" stroke-linejoin="round" stroke-linecap="round"/><path d="M193 218 L170 246 L225 246 L242 218" fill="#C69B72" stroke="#111116" stroke-width="4" stroke-linejoin="round" stroke-linecap="round"/><path d="M288 218 L318 246 L264 246 L242 218" fill="#77736C" stroke="#111116" stroke-width="4" stroke-linejoin="round" stroke-linecap="round"/><line x1="242" y1="218" x2="245" y2="246" stroke="#E23B4A" stroke-width="5" stroke-linecap="round"/><path d="M54 238 C135 222 350 222 428 238" fill="none" stroke="#111116" stroke-width="5" stroke-linejoin="round" stroke-linecap="round"/>
</svg>