<?xml version="1.0" encoding="UTF-8"?>
<svg xmlns="http://www.w3.org/2000/svg" width="480" height="270" viewBox="0 0 480 270">
  <defs>
    <filter id="paper">
      <feTurbulence type="fractalNoise" baseFrequency="0.9" numOctaves="2" stitchTiles="stitch"/>
      <feColorMatrix type="saturate" values="0"/>
      <feComponentTransfer><feFuncA type="table" tableValues="0 0.08"/></feComponentTransfer>
    </filter>
    <pattern id="dotgrid" width="18" height="18" patternUnits="userSpaceOnUse">
      <circle cx="2" cy="2" r="1.2" fill="#111116" opacity="0.16"/>
    </pattern>
  </defs>
  <rect x="0" y="0" width="480" height="270" rx="0" fill="#F5EFE7" stroke="none" stroke-width="0"/>
  <rect x="0" y="0" width="480" height="270" rx="0" fill="white" stroke="none" stroke-width="0"/>
  <rect width="480" height="270" fill="#F5EFE7"/>
  <rect width="480" height="270" filter="url(#paper)" opacity="0.55"/>
  <rect x="105" y="70" width="38" height="130" rx="0" fill="#F8F1E3" stroke="#111116" stroke-width="4"/><polygon points="95,70 124,44 153,70" fill="#17213B" stroke="#111116" stroke-width="4" stroke-linejoin="round"/><rect x="93" y="200" width="62" height="20" rx="0" fill="#6E7179" stroke="#111116" stroke-width="4"/><rect x="168" y="70" width="38" height="130" rx="0" fill="#B8C5CF" stroke="#111116" stroke-width="4"/><polygon points="158,70 187,44 216,70" fill="#17213B" stroke="#111116" stroke-width="4" stroke-linejoin="round"/><rect x="156" y="200" width="62" height="20" rx="0" fill="#6E7179" stroke="#111116" stroke-width="4"/><rect x="231" y="70" width="38" height="130" rx="0" fill="#F8F1E3" stroke="#111116" stroke-width="4"/><polygon points="221,70 250,44 279,70" fill="#17213B" stroke="#111116" stroke-width="4" stroke-linejoin="round"/><rect x="219" y="200" width="62" height="20" rx="0" fill="#6E7179" stroke="#111116" stroke-width="4"/><rect x="296" y="95" width="20" height="96" rx="0" fill="#8BBF8A" stroke="#111116" stroke-width="3"/><rect x="326" y="78" width="20" height="113" rx="0" fill="#8BBF8A" stroke="#111116" stroke-width="3"/><rect x="356" y="52" width="20" height="139" rx="0" fill="#8BBF8A" stroke="#111116" stroke-width="3"/><path d="M291 214 H420" fill="none" stroke="#111116" stroke-width="6" stroke-linejoin="round" stroke-linecap="round"/><path d="M294 219 C330 150 366 122 432 66" fill="none" stroke="#E23B4A" stroke-width="7" stroke-linejoin="round" stroke-linecap="round"/><circle cx="432" cy="66" r="20" fill="#F2C85A" stroke="#111116" stroke-width="4"/><line x1="432" y1="66" x2="451" y2="52" stroke="#E23B4A" stroke-width="5" stroke-linecap="round"/><path d="M60 236 H430" fill="none" stroke="#111116" stroke-width="5" stroke-linejoin="round" stroke-linecap="round"/>
</svg>