<?xml version="1.0" encoding="UTF-8"?>
<svg xmlns="http://www.w3.org/2000/svg" width="480" height="270" viewBox="0 0 480 270">
  <defs>
    <filter id="wobble"><feTurbulence type="fractalNoise" baseFrequency="0.015" numOctaves="2" seed="4"/><feDisplacementMap in="SourceGraphic" scale="1.2"/></filter>
    <pattern id="hatch" width="9" height="9" patternUnits="userSpaceOnUse"><path d="M0 9 L9 0" stroke="#101014" stroke-width="1" opacity="0.18"/></pattern>
    <pattern id="dots" width="14" height="14" patternUnits="userSpaceOnUse"><circle cx="2" cy="2" r="1.6" fill="#101014" opacity="0.16"/></pattern>
  </defs>
  <rect width="480" height="270" fill="#F6F6F2"/>
  <g filter="url(#wobble)">
  <circle cx="28" cy="30" r="2" fill="#101014" stroke="none" stroke-width="0"/><circle cx="60" cy="30" r="2" fill="#101014" stroke="none" stroke-width="0"/><circle cx="92" cy="30" r="2" fill="#101014" stroke="none" stroke-width="0"/><circle cx="124" cy="30" r="2" fill="#101014" stroke="none" stroke-width="0"/><circle cx="156" cy="30" r="2" fill="#101014" stroke="none" stroke-width="0"/><circle cx="188" cy="30" r="2" fill="#101014" stroke="none" stroke-width="0"/><circle cx="220" cy="30" r="2" fill="#101014" stroke="none" stroke-width="0"/><circle cx="252" cy="30" r="2" fill="#101014" stroke="none" stroke-width="0"/><circle cx="284" cy="30" r="2" fill="#101014" stroke="none" stroke-width="0"/><circle cx="316" cy="30" r="2" fill="#101014" stroke="none" stroke-width="0"/><circle cx="348" cy="30" r="2" fill="#101014" stroke="none" stroke-width="0"/><circle cx="380" cy="30" r="2" fill="#101014" stroke="none" stroke-width="0"/><circle cx="412" cy="30" r="2" fill="#101014" stroke="none" stroke-width="0"/><circle cx="444" cy="30" r="2" fill="#101014" stroke="none" stroke-width="0"/><circle cx="28" cy="110" r="2" fill="#101014" stroke="none" stroke-width="0"/><circle cx="60" cy="110" r="2" fill="#101014" stroke="none" stroke-width="0"/><circle cx="92" cy="110" r="2" fill="#101014" stroke="none" stroke-width="0"/><circle cx="124" cy="110" r="2" fill="#101014" stroke="none" stroke-width="0"/><circle cx="156" cy="110" r="2" fill="#101014" stroke="none" stroke-width="0"/><circle cx="188" cy="110" r="2" fill="#101014" stroke="none" stroke-width="0"/><circle cx="220" cy="110" r="2" fill="#101014" stroke="none" stroke-width="0"/><circle cx="252" cy="110" r="2" fill="#101014" stroke="none" stroke-width="0"/><circle cx="284" cy="110" r="2" fill="#101014" stroke="none" stroke-width="0"/><circle cx="316" cy="110" r="2" fill="#101014" stroke="none" stroke-width="0"/><circle cx="348" cy="110" r="2" fill="#101014" stroke="none" stroke-width="0"/><circle cx="380" cy="110" r="2" fill="#101014" stroke="none" stroke-width="0"/><circle cx="412" cy="110" r="2" fill="#101014" stroke="none" stroke-width="0"/><circle cx="444" cy="110" r="2" fill="#101014" stroke="none" stroke-width="0"/><circle cx="28" cy="190" r="2" fill="#101014" stroke="none" stroke-width="0"/><circle cx="60" cy="190" r="2" fill="#101014" stroke="none" stroke-width="0"/><circle cx="92" cy="190" r="2" fill="#101014" stroke="none" stroke-width="0"/><circle cx="124" cy="190" r="2" fill="#101014" stroke="none" stroke-width="0"/><circle cx="156" cy="190" r="2" fill="#101014" stroke="none" stroke-width="0"/><circle cx="188" cy="190" r="2" fill="#101014" stroke="none" stroke-width="0"/><circle cx="220" cy="190" r="2" fill="#101014" stroke="none" stroke-width="0"/><circle cx="252" cy="190" r="2" fill="#101014" stroke="none" stroke-width="0"/><circle cx="284" cy="190" r="2" fill="#101014" stroke="none" stroke-width="0"/><circle cx="316" cy="190" r="2" fill="#101014" stroke="none" stroke-width="0"/><circle cx="348" cy="190" r="2" fill="#101014" stroke="none" stroke-width="0"/><circle cx="380" cy="190" r="2" fill="#101014" stroke="none" stroke-width="0"/><circle cx="412" cy="190" r="2" fill="#101014" stroke="none" stroke-width="0"/><circle cx="444" cy="190" r="2" fill="#101014" stroke="none" stroke-width="0"/><line x1="100" y1="55" x2="100" y2="212" stroke="#101014" stroke-width="7" stroke-linecap="round"/><path d="M67 72 C97 58 103 88 133 74" fill="none" stroke="#7CB7E6" stroke-width="5" stroke-linejoin="round" stroke-linecap="round"/><path d="M67 96 C97 82 103 112 133 98" fill="none" stroke="#7CB7E6" stroke-width="5" stroke-linejoin="round" stroke-linecap="round"/><path d="M67 120 C97 106 103 136 133 122" fill="none" stroke="#7CB7E6" stroke-width="5" stroke-linejoin="round" stroke-linecap="round"/><path d="M67 144 C97 130 103 160 133 146" fill="none" stroke="#7CB7E6" stroke-width="5" stroke-linejoin="round" stroke-linecap="round"/><path d="M67 168 C97 154 103 184 133 170" fill="none" stroke="#7CB7E6" stroke-width="5" stroke-linejoin="round" stroke-linecap="round"/><path d="M72 128 L103 145 L90 167" fill="none" stroke="#E63846" stroke-width="8" stroke-linejoin="round" stroke-linecap="round"/><circle cx="100" cy="222" r="18" fill="#FFF7E8" stroke="#101014" stroke-width="5"/><line x1="240" y1="55" x2="240" y2="212" stroke="#101014" stroke-width="7" stroke-linecap="round"/><path d="M207 72 C237 58 243 88 273 74" fill="none" stroke="#F4CC58" stroke-width="5" stroke-linejoin="round" stroke-linecap="round"/><path d="M207 96 C237 82 243 112 273 98" fill="none" stroke="#F4CC58" stroke-width="5" stroke-linejoin="round" stroke-linecap="round"/><path d="M207 120 C237 106 243 136 273 122" fill="none" stroke="#F4CC58" stroke-width="5" stroke-linejoin="round" stroke-linecap="round"/><path d="M207 144 C237 130 243 160 273 146" fill="none" stroke="#F4CC58" stroke-width="5" stroke-linejoin="round" stroke-linecap="round"/><path d="M207 168 C237 154 243 184 273 170" fill="none" stroke="#F4CC58" stroke-width="5" stroke-linejoin="round" stroke-linecap="round"/><path d="M212 128 L243 145 L230 167" fill="none" stroke="#E63846" stroke-width="8" stroke-linejoin="round" stroke-linecap="round"/><circle cx="240" cy="222" r="18" fill="#FFF7E8" stroke="#101014" stroke-width="5"/><line x1="380" y1="55" x2="380" y2="212" stroke="#101014" stroke-width="7" stroke-linecap="round"/><path d="M347 72 C377 58 383 88 413 74" fill="none" stroke="#8BCB8F" stroke-width="5" stroke-linejoin="round" stroke-linecap="round"/><path d="M347 96 C377 82 383 112 413 98" fill="none" stroke="#8BCB8F" stroke-width="5" stroke-linejoin="round" stroke-linecap="round"/><path d="M347 120 C377 106 383 136 413 122" fill="none" stroke="#8BCB8F" stroke-width="5" stroke-linejoin="round" stroke-linecap="round"/><path d="M347 144 C377 130 383 160 413 146" fill="none" stroke="#8BCB8F" stroke-width="5" stroke-linejoin="round" stroke-linecap="round"/><path d="M347 168 C377 154 383 184 413 170" fill="none" stroke="#8BCB8F" stroke-width="5" stroke-linejoin="round" stroke-linecap="round"/><path d="M352 128 L383 145 L370 167" fill="none" stroke="#E63846" stroke-width="8" stroke-linejoin="round" stroke-linecap="round"/><circle cx="380" cy="222" r="18" fill="#FFF7E8" stroke="#101014" stroke-width="5"/><path d="M33 236 C138 190 229 259 332 191 C382 158 410 119 443 68" fill="none" stroke="#E63846" stroke-width="5" stroke-linejoin="round" stroke-linecap="round"/>
  </g>
</svg>