<svg xmlns="http://www.w3.org/2000/svg" viewBox="0 0 800 500">
  <defs>
    <linearGradient id="bg" x1="0%" y1="0%" x2="100%" y2="100%">
      <stop offset="0%" style="stop-color:#0e4a5c"/>
      <stop offset="100%" style="stop-color:#0f766e"/>
    </linearGradient>
  </defs>
  <rect width="800" height="500" fill="url(#bg)"/>
  <!-- Energy/climate pattern -->
  <!-- Sun rays -->
  <circle cx="600" cy="120" r="40" fill="#fbbf24" opacity="0.08"/>
  <circle cx="600" cy="120" r="25" fill="#fbbf24" opacity="0.1"/>
  <line x1="600" y1="60" x2="600" y2="40" stroke="#fbbf24" stroke-width="1.5" opacity="0.1"/>
  <line x1="640" y1="80" x2="655" y2="65" stroke="#fbbf24" stroke-width="1.5" opacity="0.1"/>
  <line x1="560" y1="80" x2="545" y2="65" stroke="#fbbf24" stroke-width="1.5" opacity="0.1"/>
  <line x1="660" y1="120" x2="680" y2="120" stroke="#fbbf24" stroke-width="1.5" opacity="0.1"/>
  <!-- Wind turbine silhouettes -->
  <line x1="200" y1="400" x2="200" y2="250" stroke="#5eead4" stroke-width="2" opacity="0.15"/>
  <line x1="200" y1="250" x2="175" y2="200" stroke="#5eead4" stroke-width="1.5" opacity="0.12"/>
  <line x1="200" y1="250" x2="230" y2="210" stroke="#5eead4" stroke-width="1.5" opacity="0.12"/>
  <line x1="200" y1="250" x2="195" y2="310" stroke="#5eead4" stroke-width="1.5" opacity="0.12"/>
  <circle cx="200" cy="250" r="4" fill="#5eead4" opacity="0.15"/>
  <line x1="300" y1="400" x2="300" y2="280" stroke="#5eead4" stroke-width="1.5" opacity="0.1"/>
  <line x1="300" y1="280" x2="280" y2="240" stroke="#5eead4" stroke-width="1" opacity="0.08"/>
  <line x1="300" y1="280" x2="325" y2="245" stroke="#5eead4" stroke-width="1" opacity="0.08"/>
  <line x1="300" y1="280" x2="297" y2="330" stroke="#5eead4" stroke-width="1" opacity="0.08"/>
  <circle cx="300" cy="280" r="3" fill="#5eead4" opacity="0.1"/>
  <!-- Temperature curve -->
  <path d="M 100 350 Q 200 345 300 340 Q 400 330 500 300 Q 550 280 600 250 Q 650 230 700 200"
        fill="none" stroke="#fbbf24" stroke-width="1.5" opacity="0.2"/>
  <path d="M 100 350 Q 200 345 300 340 Q 400 330 500 300 Q 550 280 600 250 Q 650 230 700 200 L 700 500 L 100 500 Z"
        fill="#fbbf24" opacity="0.03"/>
  <!-- Molecule/CO2 -->
  <circle cx="480" cy="380" r="12" fill="none" stroke="#5eead4" stroke-width="0.8" opacity="0.12"/>
  <circle cx="460" cy="365" r="8" fill="none" stroke="#5eead4" stroke-width="0.8" opacity="0.1"/>
  <circle cx="500" cy="370" r="8" fill="none" stroke="#5eead4" stroke-width="0.8" opacity="0.1"/>
</svg>