<svg xmlns="http://www.w3.org/2000/svg" viewBox="0 0 400 225" width="400" height="225">
  <rect width="400" height="225" fill="#0A0A0A" />
  <rect x="70" y="65.0" width="22" height="115.0" fill="#71717A" opacity="0.6"/>
<rect x="67" y="62.0" width="28" height="3" fill="#A1A1AA" opacity="0.7"/>
<rect x="120" y="67.4" width="22" height="112.6" fill="#71717A" opacity="0.6"/>
<rect x="117" y="64.4" width="28" height="3" fill="#A1A1AA" opacity="0.7"/>
<rect x="170" y="69.8" width="22" height="110.2" fill="#71717A" opacity="0.6"/>
<rect x="167" y="66.8" width="28" height="3" fill="#A1A1AA" opacity="0.7"/>
<rect x="220" y="72.2" width="22" height="107.8" fill="#71717A" opacity="0.6"/>
<rect x="217" y="69.2" width="28" height="3" fill="#A1A1AA" opacity="0.7"/>
<rect x="270" y="74.6" width="22" height="105.4" fill="#71717A" opacity="0.6"/>
<rect x="267" y="71.6" width="28" height="3" fill="#A1A1AA" opacity="0.7"/>
<rect x="62" y="57" width="238" height="6" fill="#A1A1AA" opacity="0.5"/>
<path d="M 235 77 L 240 80 L 232 100 L 245 130 L 230 175" stroke="#E6203A" stroke-width="1.8" fill="none" opacity="0.95" stroke-linecap="round"/>
  
    <rect x="16" y="16" width="14" height="6" fill="#E6203A" />
    <text x="36" y="22" font-family="Inter, sans-serif" font-size="8" font-weight="600"
          fill="#E6203A" letter-spacing="0.10em">ARCHITECTURE FINANCIÈRE</text>
    
  
    <text x="16" y="208" font-family="Inter, sans-serif" font-size="7"
          fill="#71717A" letter-spacing="0.04em">Réformes structurelles · BMD</text>
    
</svg>