<svg xmlns="http://www.w3.org/2000/svg" viewBox="0 0 400 225" width="400" height="225">
  <defs>
    <filter id="grain" x="0" y="0" width="100%" height="100%">
      <feTurbulence type="fractalNoise" baseFrequency="0.9" numOctaves="2" seed="3"/>
      <feColorMatrix values="0 0 0 0 0 0 0 0 0 0 0 0 0 0 0 0 0 0 0.18 0"/>
      <feComposite in2="SourceGraphic" operator="in"/>
    </filter>
    <filter id="grain-light" x="0" y="0" width="100%" height="100%">
      <feTurbulence type="fractalNoise" baseFrequency="0.7" numOctaves="2" seed="5"/>
      <feColorMatrix values="0 0 0 0 0 0 0 0 0 0 0 0 0 0 0 0 0 0 0.12 0"/>
      <feComposite in2="SourceGraphic" operator="in"/>
    </filter>
    <radialGradient id="rg-accent" cx="50%" cy="50%" r="50%">
      <stop offset="0%" stop-color="#E6203A" stop-opacity="0.85"/>
      <stop offset="100%" stop-color="#E6203A" stop-opacity="0"/>
    </radialGradient>
    <radialGradient id="rg-paper" cx="50%" cy="50%" r="50%">
      <stop offset="0%" stop-color="#E8E1D4" stop-opacity="0.45"/>
      <stop offset="100%" stop-color="#E8E1D4" stop-opacity="0"/>
    </radialGradient>
    
  </defs>
  <rect width="400" height="225" fill="#0A0A0A" />
  <path d="M 0 225 Q 100 110 200 145 Q 300 175 400 130 L 400 225 Z" fill="#7F1D1D" opacity="0.30"/>
<path d="M 0 225 Q 100 110 200 145 Q 300 175 400 130 L 400 225 Z" fill="url(#rg-accent)" opacity="0.4"/>
<circle cx="80" cy="165" r="35" fill="#E8E1D4" opacity="0.15" filter="url(#grain-light)"/>
<circle cx="250" cy="130" r="25" fill="#E8E1D4" opacity="0.2" filter="url(#grain-light)"/>
<circle cx="340" cy="100" r="18" fill="#E8E1D4" opacity="0.12" filter="url(#grain-light)"/>
<path d="M 50 100 Q 200 95 350 105" stroke="#E6203A" stroke-width="8" fill="none" stroke-linecap="round" opacity="0.2"/>
<path d="M 50 100 Q 200 95 350 105" stroke="#E6203A" stroke-width="5" fill="none" stroke-linecap="round" opacity="0.4"/>
<path d="M 50 100 Q 200 95 350 105" stroke="#E6203A" stroke-width="3" fill="none" stroke-linecap="round" opacity="0.65"/>
<path d="M 50 100 Q 200 95 350 105" stroke="#E6203A" stroke-width="1.5" fill="none" stroke-linecap="round" opacity="1.0"/>
<circle cx="120" cy="99" r="3" fill="#F4F4F5"/>
<circle cx="120" cy="99" r="9" fill="none" stroke="#E6203A" stroke-width="0.5" opacity="0.6"/>
<circle cx="200" cy="96" r="3" fill="#F4F4F5"/>
<circle cx="200" cy="96" r="9" fill="none" stroke="#E6203A" stroke-width="0.5" opacity="0.6"/>
<circle cx="260" cy="100" r="3" fill="#F4F4F5"/>
<circle cx="260" cy="100" r="9" fill="none" stroke="#E6203A" stroke-width="0.5" opacity="0.6"/>
<circle cx="320" cy="104" r="3" fill="#F4F4F5"/>
<circle cx="320" cy="104" r="9" fill="none" stroke="#E6203A" stroke-width="0.5" opacity="0.6"/>
<circle cx="60" cy="35" r="0.44999999999999996" fill="#E8E1D4" opacity="0.6"/>
<circle cx="180" cy="50" r="0.6" fill="#E8E1D4" opacity="0.6"/>
<circle cx="310" cy="30" r="0.44999999999999996" fill="#E8E1D4" opacity="0.6"/>
<circle cx="370" cy="60" r="0.54" fill="#E8E1D4" opacity="0.6"/>
<circle cx="115" cy="65" r="0.36" fill="#E8E1D4" opacity="0.6"/>
  <!-- noise overlay subtil -->
  <rect width="400" height="225" fill="url(#noise-overlay)" opacity="0.03"/>
</svg>